<svg
      xmlns="http://www.w3.org/2000/svg"
      xmlns:xlink="http://www.w3.org/1999/xlink"
      fill="#3498db"
      height="4rem"
      width="4rem"
      version="1.1"
      id="Layer_1"
      viewBox="0 0 481.882 481.882"
      xml:space="preserve"
    >
      <g>
        <g>
          <path d="M464.632,114.199H17.242C7.735,114.199,0,121.934,0,131.448v218.993c0,9.507,7.735,17.242,17.242,17.242h447.39
              c9.514,0,17.25-7.735,17.25-17.242V131.448C481.882,121.934,474.147,114.199,464.632,114.199z M374.286,215.059V200h29.551v15.059    H374.286z M387.588,238.993v15.059h-29.551v-15.059H387.588z M374.169,149.838h29.551v15.059h-29.551V149.838z M361.514,215.059    h-29.551V200h29.551V215.059z M345.264,238.993v15.059H315.72v-15.059H345.264z M331.728,149.838h29.551v15.059h-29.551V149.838z     M319.191,215.059h-29.545V200h29.545V215.059z M302.948,238.993v15.059h-29.551v-15.059H302.948z M289.294,149.838h29.544v15.059    h-29.544V149.838z M276.875,215.059h-29.551V200h29.551V215.059z M133.661,238.993v15.059h-29.544v-15.059H133.661z     M120.36,215.059V200h29.551v15.059H120.36z M120.36,277.993h29.551v15.059H120.36V277.993z M146.433,254.051v-15.059h29.551    v15.059H146.433z M162.683,215.059V200h29.551v15.059H162.683z M162.683,277.993h29.551v15.059h-29.551V277.993z M188.757,254.051    v-15.059h29.544v15.059H188.757z M205.007,215.059V200h29.544v15.059H205.007z M231.081,238.993h29.544v15.059h-29.544V238.993z     M228.816,149.838h29.551v15.059h-29.551V149.838z M186.382,149.838h29.544v15.059h-29.544V149.838z M143.941,149.838h29.544    v15.059h-29.544V149.838z M101.499,149.838h29.552v15.059h-29.552V149.838z M78.044,200h29.544v15.059H78.044V200z M35.72,149.838    h29.552v15.059H35.72V149.838z M35.72,200h29.552v15.059H35.72V200z M35.72,238.993h54.816v15.059H35.72V238.993z M35.72,277.993    h71.867v15.059H35.72V277.993z M65.272,332.044H35.72v-15.059h29.552V332.044z M234.551,332.044H78.044v-15.059h156.507V332.044z     M234.551,293.051h-29.544v-15.059h29.544V293.051z M276.875,332.044h-29.551v-15.059h29.551V332.044z M276.875,293.051h-29.551    v-15.059h29.551V293.051z M319.191,332.044h-29.545v-15.059h29.545V332.044z M361.514,332.044h-29.551v-15.059h29.551V332.044z     M361.514,293.051h-29.551v-15.059h29.551V293.051z M403.838,332.044h-29.551v-15.059h29.551V332.044z M446.155,332.044H416.61    v-15.059h29.545V332.044z M446.155,293.051H416.61v-15.059h29.545V293.051z M446.155,254.051H400.36v-15.059h45.795V254.051z     M446.155,215.059H416.61V200h29.545V215.059z M446.155,164.897H416.61v-15.059h29.545V164.897z" />
        </g>
      </g>
    </svg>